<svg width="3584" height="1918" xmlns="http://www.w3.org/2000/svg">

 <g>
  <title>Layer 1</title>
  <path d="m2368.5254,457.0274c-1.81323,1.81317 -142.95338,-0.07888 -146.30372,1.30884c-4.73804,1.96255 -6.90625,3.74063 -10.25659,5.12836c-4.73804,1.96255 -8.16968,-0.78836 -12.82104,2.56418c-2.94189,2.12033 -6.90625,3.74063 -10.25659,5.12836c-2.36914,0.98126 -4.34229,1.17645 -7.69263,2.56418c-2.36914,0.98126 -2.56421,0 -5.12842,0c0,0 -2.56396,2.56418 -5.12817,2.56418c-2.56421,0 -2.56421,0 -5.12842,0c0,0 0,0 -2.56421,0c0,0 0,0 -2.56421,0c-2.56421,0 -3.31519,0.75104 -5.12842,2.56418c-1.81299,1.81299 -5.19678,-0.58914 -7.69238,0c-5.58032,1.31732 -7.69263,2.56421 -15.38501,5.12836c-7.69263,2.56421 -15.38525,5.12842 -20.51343,7.69254c-5.12842,2.56424 -12.44336,3.008 -15.38525,5.12836c-4.65137,3.35248 -9.47046,3.74063 -12.8208,5.12836c-4.73804,1.96255 -7.24072,1.24686 -12.8208,2.56418c-4.99121,1.17831 -7.24072,1.24686 -12.82104,2.56418c-4.99121,1.17825 -12.8208,2.56418 -15.38501,2.56418c-5.12842,0 -8.08289,-1.96255 -12.82092,0c-3.35034,1.38773 -5.1283,2.56418 -7.6925,2.56418c-5.12842,0 -7.6925,2.56418 -10.25671,2.56418c-2.56421,0 -4.34229,1.17645 -7.6925,2.56418c-4.73804,1.96262 -10.25671,2.56418 -12.82092,2.56418c-5.12842,0 -12.03479,1.17645 -15.38513,2.56418c-4.73792,1.96249 -10.25671,2.56418 -15.38501,2.56418c-5.12842,0 -7.88782,-0.98123 -10.25671,0c-3.35034,1.38773 -5.12842,2.56418 -7.69263,2.56418c0,0 -2.56409,0 -5.1283,0c0,0 -2.56421,0 -2.56421,0c-2.56421,0 -5.1283,2.56418 -5.1283,2.56418c-2.56421,0 -5.32361,-0.98129 -7.69263,0c-3.35022,1.38773 -5.1283,2.56418 -7.6925,2.56418c-2.56421,0 -5.1283,2.56421 -10.25671,2.56421c-2.56421,0 -6.90637,3.7406 -10.25671,5.12836c-4.73792,1.96252 -7.2406,1.24683 -12.82092,2.56415c-2.49548,0.58911 -6.90649,3.74066 -10.25671,5.12836c-2.3689,0.9812 -2.56409,0 -5.1283,0c0,0 -2.56421,0 -2.56421,0c0,0 -2.56421,0 -2.56421,2.56421c0,0 0,0 0,0c-2.56409,0 -5.40271,-2.35651 -15.38501,0c-11.16064,2.63464 -12.50952,6.39368 -20.51343,7.6925c-5.06226,0.82147 -10.25671,0 -15.38513,0c-5.1283,0 -10.25671,0 -17.94922,0c-7.6925,0 -12.82092,0 -17.94922,0c-2.56421,0 -7.6925,0 -10.25671,0c-2.56421,0 -7.6925,0 -10.25671,0c-5.12842,0 -5.26563,-1.17822 -10.25671,0c-5.58032,1.31732 -8.08289,0.60168 -12.82092,2.56421c-3.35022,1.3877 -7.2406,3.81104 -12.82092,5.12836c-2.49548,0.58911 -7.6925,0 -10.25671,0c-5.1283,0 -6.90649,1.17645 -10.25671,2.56415c-2.3689,0.9812 -4.67639,1.24689 -10.25671,2.56421c-2.49548,0.58911 -3.31519,0.75104 -5.1283,2.56415c-1.81311,1.81317 -5.26563,1.38599 -10.25671,2.56421c-5.58032,1.31732 -7.82971,3.95007 -12.82092,5.12836c-5.5802,1.31732 -8.16943,1.77576 -12.82092,5.12836c-2.94177,2.1203 -5.51868,0.6015 -10.25671,2.56415c-3.35022,1.38776 -6.90649,3.74066 -10.25671,5.12836c-2.3689,0.9812 -4.34216,1.17645 -7.6925,2.56421c-4.73804,1.96259 -5.12842,2.56415 -7.6925,2.56415c0,0 0,0 -2.56421,0c-2.56421,0 -10.39392,3.95007 -15.38513,5.12836c-11.16064,2.63464 -20.51343,10.25671 -28.20593,15.38507c-7.6925,5.12836 -11.25928,12.22992 -20.51343,17.94928c-6.89758,4.26294 -12.51709,8.18036 -20.51343,12.82086c-4.95911,2.87787 -13.87756,5.04761 -23.07764,10.25671c-3.15552,1.78668 -15.38501,5.12836 -20.51343,5.12836c-7.6925,0 -12.8208,0 -20.51343,0c-7.6925,0 -15.38501,0 -23.07751,0c-7.69263,0 -12.82092,0 -20.51343,0c-5.12842,0 -12.82092,0 -20.51343,0c-10.25671,0 -17.94934,0 -23.07764,0c-7.6925,0 -12.82092,0 -17.94922,0c-5.12842,0 -10.25671,0 -15.38513,0c-5.1283,0 -7.82971,-1.17828 -12.82092,0c-5.5802,1.31732 -7.6925,2.56421 -12.8208,5.12836c-5.12842,2.56421 -12.44336,3.00806 -15.38513,5.12836c-4.65137,3.35254 -9.87915,3.00806 -12.82092,5.12836c-4.65137,3.35254 -8.76648,3.63824 -12.8208,7.69257c-4.05432,4.05432 -5.60535,6.90417 -10.25671,10.25671c-2.94177,2.1203 -5.12842,5.12836 -5.12842,5.12836c-2.56421,2.56415 -5.12842,2.56415 -5.12842,2.56415c0,0 0,0 -2.56409,0c-2.56421,0 -2.56421,0 -5.12842,2.56421c-2.56421,2.56415 -4.34216,3.7406 -7.6925,5.12836c-2.36902,0.98126 -3.31531,-1.81317 -5.12842,0c-1.81311,1.81311 0,2.56415 -2.56409,2.56415c0,0 -2.56421,0 -2.56421,0c0,0 -2.56421,0 -2.56421,0c0,0 0,0 -2.56421,0c0,0 -2.56409,2.56421 -2.56409,2.56421c-2.56421,0 -2.56421,0 -5.12842,0c0,0 0,2.56415 -2.56421,2.56415c0,0 -2.56409,0 -2.56409,0c0,2.56421 0,2.56421 0,2.56421c0,2.56415 -0.06238,1.30078 -12.82092,2.56415c-13.01123,1.28839 -20.61938,2.17242 -30.77014,5.12836c-7.78528,2.26709 -18.00684,4.18842 -25.64185,5.12836c-10.49316,1.29181 -20.51343,2.56421 -28.20593,5.12836c-7.6925,2.56421 -12.95813,1.38599 -17.94922,2.56421c-5.58032,1.31732 -10.25671,5.12836 -15.38513,5.12836c-2.56409,0 -7.2406,3.81104 -12.8208,5.12836c-2.49561,0.58917 -4.34241,1.17645 -7.69263,2.56415c-2.3689,0.9812 -5.1283,2.56421 -7.6925,2.56421c-2.56421,0 -5.32349,1.58289 -7.6925,2.56415c-3.35034,1.38776 -5.12842,2.56421 -7.6925,2.56421c-2.56421,0 -7.69263,2.56415 -7.69263,2.56415c-5.1283,2.56421 -6.63037,-1.06207 -10.25665,2.56421c-1.81311,1.81311 -2.56421,2.56415 -5.12836,2.56415c-2.56421,0 -2.56421,2.56421 -5.12836,2.56421c0,0 0,0 -2.56421,0c0,0 -0.19519,-0.98126 -2.56415,0c-6.7005,2.77545 -11.02264,2.10541 -15.38507,10.25671c-1.2099,2.26074 -2.7594,4.14709 -5.12836,5.12836c-3.35028,1.3877 -4.75073,3.008 -7.69257,5.12836c-4.65143,3.35254 -7.6925,2.56415 -10.25671,5.12836c0,0 -5.12836,2.56415 -5.12836,2.56415c-2.56415,0 -2.56415,2.56421 -5.12836,2.56421c0,0 -3.31519,0.75098 -5.12836,2.56415c-1.81317,1.81317 -1.07404,6.20239 -5.12836,10.25671c-4.05432,4.05432 -9.52368,5.67114 -15.38507,12.82092c-2.29901,2.80432 -6.30481,6.90649 -7.6925,10.25671c-0.98126,2.36902 -0.75104,5.87939 -2.56421,7.69257c-1.81311,1.81311 -1.58282,2.75934 -2.56415,5.12836c-1.38776,3.35028 -3.74066,4.34229 -5.12836,7.6925c-0.98126,2.36902 -1.24689,7.2406 -2.56421,12.82092c-0.58911,2.49554 -1.17645,4.34229 -2.56415,7.6925c-0.98126,2.36902 0,2.56421 0,5.12836c0,2.56421 0,5.12836 0,5.12836c0,2.56421 0,2.56421 0,5.12836c0,0 0,5.12836 0,7.69257c0,2.56415 0,2.56415 0,7.6925c0,2.56421 0,5.12836 0,5.12836c0,2.56421 0,5.12836 0,5.12836c0,0 0,2.56421 0,2.56421c0,2.56415 0,2.56415 0,5.12836c0,2.56415 0,2.56415 0,5.12836c0,2.56415 0,5.12836 0,7.6925c0,2.56421 0,5.12836 0,7.69257c0,5.12836 0,7.6925 0,10.25671c0,2.56415 0,2.56415 0,5.12836c0,2.56415 4.73657,7.79846 7.6925,17.94922c2.26709,7.78534 5.12836,12.82092 7.69257,17.94928c2.56415,5.12836 5.5722,9.87909 7.6925,12.82086c3.35254,4.65143 2.56421,7.69257 5.12836,10.25671c2.56421,2.56421 2.56421,2.56421 5.12836,5.12836c0,0 0,2.56421 2.56421,2.56421c0,0 0.19519,1.58289 2.56415,2.56415c3.35028,1.38776 4.14709,5.32355 5.12836,7.6925c1.38776,3.35034 3.74066,1.7782 5.12836,5.12842c0.98126,2.36902 2.56421,2.56421 2.56421,2.56421c0,2.56409 2.56415,2.56409 2.56415,5.1283c0,0 0.75104,-1.81311 2.56421,0c1.81317,1.81311 0.25104,4.67822 5.12836,7.6925c2.18121,1.34802 5.12836,2.56421 10.25671,5.12842c0,0 2.56415,2.56421 2.56415,2.56421c0,2.56409 0,5.1283 0,7.6925c0,2.56421 4.02454,15.72607 7.69257,25.64172c1.98926,5.37756 5.1283,10.25671 7.6925,15.38513c2.56415,5.1283 4.33997,8.16943 7.69257,12.82092c2.1203,2.94177 7.6925,5.1283 10.25671,7.6925c0,0 4.88812,0.26514 7.6925,2.56421c7.14966,5.86145 12.82092,7.6925 15.38513,10.25671c2.56409,2.56409 7.6925,5.1283 10.25671,7.6925c2.56409,2.56421 2.59717,4.71753 5.1283,5.1283c8.00391,1.29883 14.2854,6.87061 25.64185,12.82092c7.1825,3.76331 16.63354,7.89905 23.07751,12.82092c7.34729,5.61182 11.33069,8.7666 15.38513,12.82092c4.05432,4.05432 5.1283,7.6925 5.1283,10.25671c0,0 5.17798,-0.7113 10.25671,0c18.48718,2.58923 30.77014,10.25671 41.02686,15.38501c5.12842,2.56421 10.25671,5.12842 12.82092,7.69263c2.56421,2.56409 3.31531,3.31519 5.12842,5.1283c1.81311,1.81311 12.7627,0.24475 23.07751,2.56421c12.75635,2.86853 23.07764,7.6925 33.33435,10.25671c10.25671,2.56421 20.45532,5.37305 30.77014,7.6925c12.75635,2.86853 16.88721,1.5022 20.51343,5.12842c1.81311,1.81311 2.56421,2.56409 15.38513,2.56409c20.51343,0 43.59106,0 66.66858,0c20.51343,0 30.77014,0 43.59106,-2.56409c12.82092,-2.56421 20.51343,-5.12842 25.64185,-5.12842c0,0 2.56409,0 10.25671,0c12.8208,0 25.64172,0 38.46265,0c15.38501,0 25.45142,1.27588 38.46265,2.56421c12.75854,1.26331 23.07764,0 35.89856,0c7.6925,0 7.6925,0 7.6925,0c15.38501,-2.56421 47.875,-17.23511 74.36121,-28.20593c29.9657,-12.41211 56.26672,-20.89221 69.23279,-25.64185c22.84167,-8.36707 33.18921,-13.19971 46.15527,-17.94922c7.61389,-2.78906 7.6925,-2.56421 12.8208,-2.56421c5.12842,0 20.5603,-7.52271 48.71948,-15.38513c35.95959,-10.04028 51.5,-14.16785 69.23279,-17.94922c18.25696,-3.89319 30.77014,-12.82092 38.46265,-15.38501c0,0 0,0 17.94922,0c23.07764,0 53.72803,-1.27966 74.36121,-2.56421c15.35535,-0.95605 25.64172,-2.56421 30.77014,-2.56421c2.56421,0 5.12842,0 5.12842,0c0,0 5.12842,0 10.25659,0c17.94946,0 46.15527,0 74.36133,0c41.02686,0 58.97607,0 74.36108,0c10.25684,0 17.94922,0 17.94922,0c2.56421,0 7.74243,-1.01062 17.94922,0c13.01123,1.28833 40.99805,5.30737 56.41211,7.6925c17.91821,2.77258 30.87598,4.73669 41.02686,7.69263c7.78516,2.26697 15.38501,5.1283 15.38501,5.1283c2.56421,0 7.61157,0.13684 20.51343,7.6925c17.83911,10.44702 40.95898,23.23169 64.10449,33.33435c17.89746,7.81201 35.98315,15.1626 56.41187,23.07764c12.87598,4.98877 17.63794,6.39368 25.64185,7.6925c2.53101,0.41077 8.09497,-1.07764 23.07764,5.12842c10.59424,4.38831 23.07764,10.25671 43.59106,20.51343c10.25659,5.1283 25.86597,12.29236 38.46265,17.94922c10.46094,4.69763 18.42627,6.90417 23.07764,10.25671c2.94189,2.12036 5.12817,2.56421 5.12817,5.12842c0,2.56409 -0.73291,5.67102 5.12842,12.8208c6.89722,8.41321 12.1936,15.72363 17.94922,25.64185c4.64038,7.99634 8.93945,14.93311 10.25684,20.51343c0.58911,2.49561 0,7.6925 0,10.25671c0,5.1283 0,5.1283 0,7.6925c0,2.56421 -1.17651,4.34229 -2.56421,7.6925c-2.94385,7.10706 -5.42847,25.55884 -10.25684,43.59106c-2.73462,10.21252 -7.30078,28.31189 -10.25659,38.46265c-2.26709,7.7854 -2.56421,15.38513 -5.12842,20.51343c-2.56421,5.12842 -3.81104,7.24072 -5.12842,12.82092c-0.58911,2.49561 -3.10767,10.83301 -7.69238,23.07764c-7.24927,19.36047 -17.52539,36.1178 -25.64185,51.28357c-9.75464,18.22681 -15.92383,22.69495 -23.07764,33.33435c-8.34277,12.40759 -13.7085,17.19397 -17.94922,23.07764c-3.35254,4.65137 -5.12842,5.1283 -7.69263,10.25671c0,0 -2.11377,0.25098 -5.12817,5.1283c-6.74048,10.90613 -17.28955,23.58936 -33.33447,43.59106c-14.79248,18.44055 -27.32935,36.83948 -41.02686,48.71936c-9.68555,8.40015 -28.08594,20.69788 -35.89844,25.64185c-12.63428,7.99536 -22.62573,11.50354 -28.20605,12.8208c-4.99097,1.17822 -7.69238,2.56421 -10.25659,2.56421c-2.56421,0 -15.23999,5.5072 -28.20605,10.25671c-15.22778,5.578 -38.604,12.40625 -69.23267,23.07764c-28.34204,9.87476 -58.67041,19.17444 -87.18213,25.64172c-27.95825,6.34167 -51.28369,5.12842 -69.23291,5.12842c-25.64185,0 -35.89844,0 -38.46265,0c-2.56421,0 -7.69263,0 -12.8208,0c-20.51343,0 -43.59106,2.56421 -71.79712,2.56421c-30.77014,0 -66.66858,0 -79.4895,0" id="svg_22" stroke-width="14" stroke="#ff4b33" fill="none"/>
  <path id="svg_2" d="m-19,1834.5" opacity="NaN" stroke="#ff4b33" fill="#ff4b33"/>
  <g id="svg_9">
   <rect id="svg_6" height="170" width="170" y="409.49991" x="3883.50017" stroke="#ff4b33" fill="#ff4b33"/>
   <text xml:space="preserve" text-anchor="start" font-family="Noto Sans JP" font-size="151" id="svg_7" y="544.49991" x="3948.50017" stroke-width="0" stroke="#ff4b33" fill="#000000">I</text>
  </g>
  <g stroke="null" id="svg_12">
   <rect stroke="#ff4b33" id="svg_10" height="47.98506" width="46.9194" y="1033.18842" x="2273.63336" fill="#ff4b33"/>
   <text stroke="#ff4b33" transform="matrix(0.275996 0 0 0.282265 886.907 845.881)" xml:space="preserve" text-anchor="start" font-family="Noto Sans JP" font-size="151" id="svg_11" y="798.5858" x="5089.43664" stroke-width="0" fill="#000000">I</text>
  </g>
  <g id="svg_18">
   <rect id="svg_16" height="170" width="170" y="79.49991" x="5858.50017" stroke="#ff4b33" fill="#ff4b33"/>
   <text xml:space="preserve" text-anchor="start" font-family="Noto Sans JP" font-size="151" id="svg_17" y="214.49991" x="5923.50017" stroke-width="0" stroke="#ff4b33" fill="#000000">I</text>
  </g>
  <g id="svg_8">
   <rect id="svg_3" height="170" width="170" y="2177.86008" x="5376.65807" stroke="#ff4b33" fill="#ff4b33"/>
   <text xml:space="preserve" text-anchor="start" font-family="Noto Sans JP" font-size="151" id="svg_4" y="2312.86008" x="5441.65807" stroke-width="0" stroke="#ff4b33" fill="#000000">I</text>
  </g>
  <g stroke="null" id="svg_29">
   <rect stroke="#ff4b33" id="svg_27" height="47.98506" width="46.9194" y="624.72194" x="1167.61541" fill="#ff4b33"/>
   <text stroke="#ff4b33" transform="matrix(0.275996 0 0 0.282265 886.907 845.881)" xml:space="preserve" text-anchor="start" font-family="Noto Sans JP" font-size="151" id="svg_28" y="-648.51701" x="1082.06653" stroke-width="0" fill="#000000">I</text>
  </g>
  <g stroke="null" id="svg_32">
   <rect stroke="#ff4b33" id="svg_30" height="47.98506" width="46.9194" y="482.07824" x="2348.82696" fill="#ff4b33"/>
   <text stroke="#ff4b33" transform="matrix(0.275996 0 0 0.282265 886.907 845.881)" xml:space="preserve" text-anchor="start" font-family="Noto Sans JP" font-size="151" id="svg_31" y="-1153.87082" x="5361.88054" stroke-width="0" fill="#000000">I</text>
  </g>
  <g stroke="null" id="svg_35">
   <rect stroke="#ff4b33" id="svg_33" height="47.98506" width="46.9194" y="1320.14494" x="2583.31495" fill="#ff4b33"/>
   <text stroke="#ff4b33" transform="matrix(0.275996 0 0 0.282265 886.907 845.881)" xml:space="preserve" text-anchor="start" font-family="Noto Sans JP" font-size="151" id="svg_34" y="1815.20674" x="6211.48705" stroke-width="0" fill="#000000">I</text>
  </g>
  <g stroke="null" id="svg_38">
   <rect stroke="#ff4b33" id="svg_36" height="47.98506" width="46.9194" y="1750.44162" x="2039.60562" fill="#ff4b33"/>
   <text stroke="#ff4b33" transform="matrix(0.275996 0 0 0.282265 886.907 845.881)" xml:space="preserve" text-anchor="start" font-family="Noto Sans JP" font-size="151" id="svg_37" y="3339.64892" x="4241.49714" stroke-width="0" fill="#000000">I</text>
  </g>
 </g>
</svg>