<svg width="3584" height="1918.0000000000002" xmlns="http://www.w3.org/2000/svg" fill="none">

 <g>
  <title>Layer 1</title>
  <path stroke="#EE3227" id="svg_1" stroke-linecap="round" stroke-width="20" d="m2368.33663,442.05127c-27.0232,9.17333 -64.97729,19.89406 -95.18248,26.27426c-68.5984,14.48999 -140.42608,22.22464 -210.47698,31.71038c-115.88901,15.69048 -373.97411,56.05926 -373.97411,56.05926c0,0 -312.96923,57.25587 -470.20374,82.67314c-72.80727,11.76888 -118.63862,16.60985 -191.11485,29.55852c-94.6839,16.91665 -191.01757,29.88672 -284.04292,51.86908c-121.70237,28.75891 -278.75245,55.34782 -366.61502,131.82386c-51.32733,44.67617 -56.3125,105.7614 -24.32068,158.55393c15.52017,25.60889 25.55024,35.29185 52.84502,54.3571c24.38033,17.03182 57.40269,26.40901 84.97311,39.86323c103.00299,50.28006 221.71052,57.07342 337.79004,78.37084c138.43379,25.40504 272.94111,18.80024 413.45501,13.36249c146.83058,-5.67727 293.26931,-32.84053 440.47821,-32.84053c143.04057,0 282.29114,-0.22424 423.96704,13.13825c63.47075,5.98305 134.48773,15.23283 196.36411,27.63212c67.40938,13.50519 128.21159,22.4237 185.25757,34.87905c57.05274,12.46044 107.79556,32.39206 145.02678,52.77724c37.23122,20.38519 57.34999,37.71259 75.0637,68.63182c28.22574,67.94892 26.63137,128.97197 -6.90443,187.99727c-14.1534,24.9107 -36.48132,40.41363 -72.96265,61.37979c-56.74873,32.6163 -155.83606,55.04 -235.10187,79.50222c0,0 -105.76882,28.92658 -181.65673,51.1872c-74.3611,21.81724 -151.84338,36.00533 -226.39364,56.63004"/>
 </g>
</svg>